<?xml version="1.0" encoding="UTF-8"?>
<svg xmlns="http://www.w3.org/2000/svg" xmlns:xlink="http://www.w3.org/1999/xlink" width="375pt" height="374.999991pt" viewBox="0 0 375 374.999991" version="1.2">
<defs>
<clipPath id="clip1">
  <path d="M 54.582031 25.40625 L 319.753906 25.40625 L 319.753906 349.21875 L 54.582031 349.21875 Z M 54.582031 25.40625 "/>
</clipPath>
</defs>
<g id="surface1">
<g clip-path="url(#clip1)" clip-rule="nonzero">
<path style=" stroke:none;fill-rule:nonzero;fill:rgb(5.099487%,21.958923%,34.509277%);fill-opacity:1;" d="M 253.441406 73.652344 C 214.855469 55.769531 187.230469 25.457031 187.230469 25.457031 C 187.230469 25.457031 159.601562 55.769531 121.023438 73.652344 C 82.4375 91.539062 54.8125 96.074219 54.8125 96.074219 C 54.8125 96.074219 54.8125 156.386719 54.8125 221.339844 C 54.8125 326.496094 187.230469 349.292969 187.230469 349.292969 C 187.230469 349.292969 319.648438 326.496094 319.648438 221.339844 C 319.648438 156.386719 319.648438 96.074219 319.648438 96.074219 C 319.648438 96.074219 292.023438 91.539062 253.441406 73.652344 Z M 253.441406 73.652344 "/>
</g>
<path style="fill:none;stroke-width:6.012;stroke-linecap:round;stroke-linejoin:round;stroke:rgb(100%,100%,100%);stroke-opacity:1;stroke-miterlimit:10;" d="M 124.853548 237.597745 C 124.853548 307.185836 212.599286 322.274078 212.599286 322.274078 C 212.599286 322.274078 300.345024 307.185836 300.345024 237.597745 C 300.345024 194.616413 300.345024 154.703197 300.345024 154.703197 C 300.345024 154.703197 282.03847 151.699705 256.472155 139.867298 C 230.908921 128.028737 212.599286 107.970577 212.599286 107.970577 " transform="matrix(1.26769,0,0,1.269356,-82.279473,-82.490553)"/>
<path style=" stroke:none;fill-rule:nonzero;fill:rgb(100%,100%,100%);fill-opacity:1;" d="M 131.609375 130.113281 C 131.609375 130.957031 131.566406 131.796875 131.484375 132.636719 C 131.402344 133.476562 131.277344 134.308594 131.113281 135.136719 C 130.949219 135.964844 130.746094 136.78125 130.5 137.589844 C 130.257812 138.394531 129.972656 139.191406 129.652344 139.96875 C 129.328125 140.75 128.96875 141.511719 128.570312 142.253906 C 128.175781 142.996094 127.742188 143.71875 127.273438 144.421875 C 126.804688 145.125 126.304688 145.800781 125.769531 146.453125 C 125.234375 147.105469 124.671875 147.730469 124.074219 148.324219 C 123.480469 148.921875 122.855469 149.488281 122.203125 150.023438 C 121.554688 150.558594 120.878906 151.058594 120.175781 151.527344 C 119.476562 151.996094 118.753906 152.429688 118.011719 152.828125 C 117.269531 153.226562 116.507812 153.585938 115.730469 153.910156 C 114.953125 154.230469 114.160156 154.515625 113.351562 154.761719 C 112.546875 155.003906 111.730469 155.210938 110.90625 155.375 C 110.078125 155.539062 109.246094 155.664062 108.40625 155.746094 C 107.570312 155.828125 106.730469 155.867188 105.886719 155.867188 C 105.042969 155.867188 104.203125 155.828125 103.363281 155.746094 C 102.527344 155.664062 101.695312 155.539062 100.867188 155.375 C 100.042969 155.210938 99.226562 155.003906 98.417969 154.761719 C 97.613281 154.515625 96.820312 154.230469 96.042969 153.910156 C 95.265625 153.585938 94.503906 153.226562 93.761719 152.828125 C 93.019531 152.429688 92.296875 151.996094 91.59375 151.527344 C 90.894531 151.058594 90.21875 150.558594 89.566406 150.023438 C 88.917969 149.488281 88.292969 148.921875 87.699219 148.324219 C 87.101562 147.730469 86.535156 147.105469 86.003906 146.453125 C 85.46875 145.800781 84.964844 145.125 84.5 144.421875 C 84.03125 143.71875 83.597656 142.996094 83.199219 142.253906 C 82.804688 141.511719 82.445312 140.75 82.121094 139.96875 C 81.800781 139.191406 81.515625 138.394531 81.269531 137.589844 C 81.027344 136.78125 80.820312 135.964844 80.65625 135.136719 C 80.492188 134.308594 80.371094 133.476562 80.289062 132.636719 C 80.203125 131.796875 80.164062 130.957031 80.164062 130.113281 C 80.164062 129.269531 80.203125 128.425781 80.289062 127.589844 C 80.371094 126.75 80.492188 125.914062 80.65625 125.085938 C 80.820312 124.261719 81.027344 123.441406 81.269531 122.636719 C 81.515625 121.828125 81.800781 121.035156 82.121094 120.257812 C 82.445312 119.476562 82.804688 118.714844 83.199219 117.972656 C 83.597656 117.226562 84.03125 116.503906 84.5 115.804688 C 84.964844 115.101562 85.46875 114.425781 86.003906 113.773438 C 86.535156 113.121094 87.101562 112.496094 87.699219 111.898438 C 88.292969 111.304688 88.917969 110.738281 89.566406 110.203125 C 90.21875 109.667969 90.894531 109.164062 91.59375 108.695312 C 92.296875 108.226562 93.019531 107.796875 93.761719 107.398438 C 94.503906 107 95.265625 106.640625 96.042969 106.316406 C 96.820312 105.992188 97.613281 105.710938 98.417969 105.464844 C 99.226562 105.21875 100.042969 105.015625 100.867188 104.851562 C 101.695312 104.6875 102.527344 104.5625 103.363281 104.480469 C 104.203125 104.398438 105.042969 104.355469 105.886719 104.355469 C 106.730469 104.355469 107.570312 104.398438 108.40625 104.480469 C 109.246094 104.5625 110.078125 104.6875 110.90625 104.851562 C 111.730469 105.015625 112.546875 105.21875 113.351562 105.464844 C 114.160156 105.710938 114.953125 105.992188 115.730469 106.316406 C 116.507812 106.640625 117.269531 107 118.011719 107.398438 C 118.753906 107.796875 119.476562 108.226562 120.175781 108.695312 C 120.878906 109.164062 121.554688 109.667969 122.203125 110.203125 C 122.855469 110.738281 123.480469 111.304688 124.074219 111.898438 C 124.671875 112.496094 125.234375 113.121094 125.769531 113.773438 C 126.304688 114.425781 126.804688 115.101562 127.273438 115.804688 C 127.742188 116.503906 128.175781 117.226562 128.570312 117.972656 C 128.96875 118.714844 129.328125 119.476562 129.652344 120.257812 C 129.972656 121.035156 130.257812 121.828125 130.5 122.636719 C 130.746094 123.441406 130.949219 124.261719 131.113281 125.085938 C 131.277344 125.914062 131.402344 126.75 131.484375 127.589844 C 131.566406 128.425781 131.609375 129.269531 131.609375 130.113281 Z M 131.609375 130.113281 "/>
<path style="fill:none;stroke-width:7.515;stroke-linecap:round;stroke-linejoin:round;stroke:rgb(100%,100%,100%);stroke-opacity:1;stroke-miterlimit:10;" d="M 258.955757 182.922487 L 211.308182 260.139326 L 185.781925 229.264284 " transform="matrix(1.26769,0,0,1.269356,-82.279473,-82.490553)"/>
</g>
</svg>
